<svg xmlns="http://www.w3.org/2000/svg" version="1.1" xmlns:xlink="http://www.w3.org/1999/xlink" xmlns:svgjs="http://svgjs.dev/svgjs" width="1000" height="441" viewBox="0 0 1000 441"><g transform="matrix(1,0,0,1,-0.6060508513807008,-0.4221622805299603)"><svg viewBox="0 0 396 175" data-background-color="#ea3c12" preserveAspectRatio="xMidYMid meet" height="441" width="1000" xmlns="http://www.w3.org/2000/svg" xmlns:xlink="http://www.w3.org/1999/xlink"><g id="tight-bounds" transform="matrix(1,0,0,1,0.23999618025897007,0.16752471449601103)"><svg viewBox="0 0 395.52 174.66495057100798" height="174.66495057100798" width="395.52"><g><svg viewBox="0 0 395.52 174.66495057100798" height="174.66495057100798" width="395.52"><g transform="matrix(1,0,0,1,0,130.999542571008)"><svg viewBox="0 0 395.52 43.665408" height="43.665408" width="395.52"><g id="textblocktransform"><svg viewBox="0 0 395.52 43.665408" height="43.665408" width="395.52" id="textblock"><g><svg viewBox="0 0 395.52 43.665408" height="43.665408" width="395.52"><g transform="matrix(1,0,0,1,0,0)"><svg width="395.52" viewBox="1.7000000476837158 -35.29999923706055 437.4599914550781 48.29999923706055" height="43.665408" data-palette-color="#ffbe79"><path d="M14.1 1.05Q11.25 1.05 8.63-0.08 6-1.2 4.15-3.18 2.3-5.15 1.7-7.6L1.7-7.6 4.2-8.65Q5-5.6 7.78-3.65 10.55-1.7 14.1-1.7L14.1-1.7Q16.5-1.7 18.45-2.75 20.4-3.8 21.53-5.63 22.65-7.45 22.65-9.65L22.65-9.65Q22.65-11.4 21.9-12.68 21.15-13.95 19.35-15.13 17.55-16.3 14.2-17.7L14.2-17.7Q9.3-19.75 7.25-21.88 5.2-24 5.2-27L5.2-27Q5.2-29.35 6.4-31.25 7.6-33.15 9.73-34.23 11.85-35.3 14.5-35.3L14.5-35.3Q16.8-35.3 18.65-34.52 20.5-33.75 21.55-32.38 22.6-31 22.6-29.3L22.6-29.3Q22.6-27.3 21.13-26 19.65-24.7 17.5-24.95L17.5-24.95 17.7-27.55Q18.5-27.45 19.1-27.98 19.7-28.5 19.7-29.35L19.7-29.35Q19.7-30.65 18.15-31.6 16.6-32.55 14.55-32.55L14.55-32.55Q12.85-32.55 11.38-31.83 9.9-31.1 9.05-29.85 8.2-28.6 8.2-27.15L8.2-27.15Q8.2-25.05 9.98-23.43 11.75-21.8 15.95-20L15.95-20Q21.2-17.75 23.43-15.38 25.65-13 25.65-9.7L25.65-9.7Q25.65-6.75 24.1-4.28 22.55-1.8 19.9-0.38 17.25 1.05 14.1 1.05L14.1 1.05ZM54.1-3.1L56.25-1.4Q55.5-0.35 54.57 0.08 53.65 0.5 52.45 0.5L52.45 0.5Q50.7 0.5 49.37-0.7 48.05-1.9 48.05-3.6L48.05-3.6Q44.6 0.4 39.7 0.4L39.7 0.4Q35.95 0.4 33.85-1.43 31.75-3.25 31.55-6.95L31.55-6.95 31.55-17.65Q31.55-21.6 29.45-23.45L29.45-23.45 31.45-25.45Q32.65-24.7 33.6-23.1 34.55-21.5 34.55-19.65L34.55-19.65 34.55-8.25Q34.55-5.4 35.82-3.85 37.1-2.3 40-2.3L40-2.3Q42.75-2.3 44.72-3.5 46.7-4.7 48-7.3L48-7.3 48.05-25 51.05-25 51-4.3Q51-3.3 51.47-2.78 51.95-2.25 52.65-2.25L52.65-2.25Q53.55-2.25 54.1-3.1L54.1-3.1ZM70.55-25.5Q72.05-25.5 73.55-25.05L73.55-25.05 73.55-22.25Q72.09-22.6 70.65-22.6L70.65-22.6Q68.09-22.6 66.5-21.35L66.5-21.35Q64.9-20.1 63.65-17.8L63.65-17.8 63.65 0 60.65 0 60.65-17.5Q60.65-21.45 58.55-23.3L58.55-23.3 60.55-25.3Q61.45-24.75 62.25-23.65 63.05-22.55 63.4-21.2L63.4-21.2Q64.8-23.5 66.2-24.35L66.2-24.35Q67.95-25.5 70.55-25.5L70.55-25.5ZM89.29-25.4Q92.74-25.4 95.17-23.68 97.59-21.95 98.82-19.05 100.04-16.15 100.04-12.6L100.04-12.6Q100.04-8.75 98.59-5.8 97.14-2.85 94.39-1.18 91.64 0.5 87.84 0.5L87.84 0.5Q86.59 0.5 81.89-0.15L81.89-0.15 81.89 13 79.04 13 79.04-17.6Q79.04-21.55 76.94-23.4L76.94-23.4 78.94-25.4Q79.79-24.8 80.59-23.75 81.39-22.7 81.74-21.45L81.74-21.45Q83.89-25.4 89.29-25.4L89.29-25.4ZM87.59-2.2Q92.29-2.2 94.67-4.93 97.04-7.65 97.04-12.35L97.04-12.35Q97.04-16.8 95.02-19.75 92.99-22.7 89.39-22.7L89.39-22.7Q86.54-22.7 84.32-20.95 82.09-19.2 81.89-16.4L81.89-16.4 81.89-2.65Q86.49-2.2 87.59-2.2L87.59-2.2ZM115.89-25.5Q117.39-25.5 118.89-25.05L118.89-25.05 118.89-22.25Q117.44-22.6 115.99-22.6L115.99-22.6Q113.44-22.6 111.84-21.35L111.84-21.35Q110.24-20.1 108.99-17.8L108.99-17.8 108.99 0 105.99 0 105.99-17.5Q105.99-21.45 103.89-23.3L103.89-23.3 105.89-25.3Q106.79-24.75 107.59-23.65 108.39-22.55 108.74-21.2L108.74-21.2Q110.14-23.5 111.54-24.35L111.54-24.35Q113.29-25.5 115.89-25.5L115.89-25.5ZM126.84-4.2Q126.84-3.5 127.31-3.03 127.79-2.55 128.44-2.55L128.44-2.55Q129.44-2.55 129.89-3.4L129.89-3.4 132.09-1.75Q131.69-0.9 130.69-0.33 129.69 0.25 128.44 0.25L128.44 0.25Q126.44 0.25 125.14-1 123.84-2.25 123.84-4.25L123.84-4.25 123.84-25 126.84-25 126.84-4.2ZM125.19-28.25Q124.34-28.25 123.71-28.88 123.09-29.5 123.09-30.35L123.09-30.35Q123.09-31.25 123.71-31.88 124.34-32.5 125.19-32.5L125.19-32.5Q126.09-32.5 126.71-31.88 127.34-31.25 127.34-30.35L127.34-30.35Q127.34-29.5 126.71-28.88 126.09-28.25 125.19-28.25L125.19-28.25ZM143.64 0.6Q138.59 0.6 134.24-3.3L134.24-3.3 135.89-5.3Q137.79-3.75 139.66-2.93 141.54-2.1 143.69-2.1L143.69-2.1Q146.39-2.1 147.91-3.38 149.44-4.65 149.44-6.85L149.44-6.85Q149.44-8.25 148.76-9.13 148.09-10 146.96-10.55 145.84-11.1 142.94-12.3L142.94-12.3Q140.29-13.4 138.84-14.2 137.39-15 136.54-16.18 135.69-17.35 135.69-19.15L135.69-19.15Q135.69-22.1 137.79-23.88 139.89-25.65 143.39-25.65L143.39-25.65Q145.19-25.65 146.96-25.15 148.74-24.65 149.99-23.7L149.99-23.7 148.74-21.55Q146.44-22.95 143.54-22.95L143.54-22.95Q141.24-22.95 139.99-22.05 138.74-21.15 138.74-19.5L138.74-19.5Q138.74-18.25 139.41-17.45 140.09-16.65 141.16-16.13 142.24-15.6 144.74-14.6L144.74-14.6Q147.59-13.45 149.16-12.53 150.74-11.6 151.61-10.28 152.49-8.95 152.49-7L152.49-7Q152.49-3.55 150.06-1.48 147.64 0.6 143.64 0.6L143.64 0.6ZM168.23 0.5Q164.48 0.5 161.88-1.05 159.28-2.6 157.96-5.33 156.63-8.05 156.63-11.5L156.63-11.5Q156.63-14.9 157.91-18.1 159.18-21.3 161.76-23.35 164.33-25.4 168.03-25.4L168.03-25.4Q170.48-25.4 172.58-24.45 174.68-23.5 175.91-21.75 177.13-20 177.13-17.7L177.13-17.7Q177.13-14 173.98-11.98 170.83-9.95 165.28-10L165.28-10 159.78-10.05Q160.23-6.2 162.36-4.2 164.48-2.2 168.23-2.2L168.23-2.2Q170.48-2.2 172.41-2.83 174.33-3.45 176.13-4.75L176.13-4.75 177.63-2.75Q175.73-1.25 173.31-0.38 170.88 0.5 168.23 0.5L168.23 0.5ZM165.93-12.6Q174.13-12.6 174.13-17.75L174.13-17.75Q174.13-20.25 172.41-21.48 170.68-22.7 168.18-22.7L168.18-22.7Q165.38-22.7 163.46-21.1 161.53-19.5 160.58-17.15 159.63-14.8 159.63-12.6L159.63-12.6 165.93-12.6ZM201.43-31.4Q200.43-31.4 199.95-31.28 199.48-31.15 199.13-30.8L199.13-30.8Q198.83-30.5 198.6-29.98 198.38-29.45 198.38-29L198.38-29 195.63-29.05Q195.73-31.4 197.13-32.8L197.13-32.8Q197.88-33.5 198.9-33.83 199.93-34.15 201.48-34.2L201.48-34.2 212.63-34.2Q214.83-34.2 216.63-33.35L216.63-33.35Q219.08-32.15 220.55-29.58 222.03-27 222.03-23.85L222.03-23.85Q222.03-21.25 221-19.13 219.98-17 218.15-15.75 216.33-14.5 214.03-14.5L214.03-14.5 212.78-14.45 213.43-14.25Q213.83-14.15 214.43-13.7 215.03-13.25 215.33-12.85L215.33-12.85 222.58-3.05Q223.18-2.25 223.88-2.25L223.88-2.25Q224.83-2.25 225.38-3.15L225.38-3.15 227.73-1.45Q227.13-0.55 226.1-0.03 225.08 0.5 223.93 0.5L223.93 0.5Q221.68 0.5 220.23-1.45L220.23-1.45 214.28-9.65Q212.88-11.55 211.5-12.55 210.13-13.55 207.53-13.8L207.53-13.8 207.53-16.6 211.88-16.6Q215.18-16.6 217.1-18.55 219.03-20.5 219.03-23.85L219.03-23.85Q219.03-27.2 217.18-29.3 215.33-31.4 212.43-31.4L212.43-31.4 204.43-31.4 204.43 0 201.43 0 201.43-31.4ZM239.93 0.5Q236.18 0.5 233.58-1.05 230.98-2.6 229.65-5.33 228.33-8.05 228.33-11.5L228.33-11.5Q228.33-14.9 229.6-18.1 230.88-21.3 233.45-23.35 236.03-25.4 239.73-25.4L239.73-25.4Q242.18-25.4 244.28-24.45 246.38-23.5 247.6-21.75 248.83-20 248.83-17.7L248.83-17.7Q248.83-14 245.68-11.98 242.53-9.95 236.98-10L236.98-10 231.48-10.05Q231.93-6.2 234.05-4.2 236.18-2.2 239.93-2.2L239.93-2.2Q242.18-2.2 244.1-2.83 246.03-3.45 247.83-4.75L247.83-4.75 249.33-2.75Q247.43-1.25 245-0.38 242.58 0.5 239.93 0.5L239.93 0.5ZM237.63-12.6Q245.83-12.6 245.83-17.75L245.83-17.75Q245.83-20.25 244.1-21.48 242.38-22.7 239.88-22.7L239.88-22.7Q237.08-22.7 235.15-21.1 233.23-19.5 232.28-17.15 231.33-14.8 231.33-12.6L231.33-12.6 237.63-12.6ZM262.02 0.6Q256.97 0.6 252.62-3.3L252.62-3.3 254.27-5.3Q256.17-3.75 258.05-2.93 259.92-2.1 262.07-2.1L262.07-2.1Q264.77-2.1 266.3-3.38 267.82-4.65 267.82-6.85L267.82-6.85Q267.82-8.25 267.15-9.13 266.47-10 265.35-10.55 264.22-11.1 261.32-12.3L261.32-12.3Q258.67-13.4 257.22-14.2 255.77-15 254.92-16.18 254.07-17.35 254.07-19.15L254.07-19.15Q254.07-22.1 256.17-23.88 258.27-25.65 261.77-25.65L261.77-25.65Q263.57-25.65 265.35-25.15 267.12-24.65 268.37-23.7L268.37-23.7 267.12-21.55Q264.82-22.95 261.92-22.95L261.92-22.95Q259.62-22.95 258.37-22.05 257.12-21.15 257.12-19.5L257.12-19.5Q257.12-18.25 257.8-17.45 258.47-16.65 259.55-16.13 260.62-15.6 263.12-14.6L263.12-14.6Q265.97-13.45 267.55-12.53 269.12-11.6 270-10.28 270.87-8.95 270.87-7L270.87-7Q270.87-3.55 268.45-1.48 266.02 0.6 262.02 0.6L262.02 0.6ZM282.57 0.5Q279.17 0.5 277.57-1.43 275.97-3.35 275.97-7.2L275.97-7.2 275.97-31.25 278.97-31.25 278.97-24.9 286.82-24.9 286.82-22.2 278.97-22.2 278.97-7.2Q278.97-2.2 282.57-2.2L282.57-2.2Q285.42-2.2 286.97-5.25L286.97-5.25 289.22-3.7Q288.07-1.6 286.47-0.55 284.87 0.5 282.57 0.5L282.57 0.5ZM302.17 0.5Q298.72 0.5 296.27-1.25 293.82-3 292.57-5.9 291.32-8.8 291.32-12.3L291.32-12.3Q291.32-16.15 292.82-19.13 294.32-22.1 297.12-23.75 299.92-25.4 303.67-25.4L303.67-25.4Q304.82-25.4 306.57-25.28 308.32-25.15 309.67-24.95L309.67-24.95 312.67-24.95 312.67-4.3Q312.67-3.3 313.14-2.78 313.62-2.25 314.32-2.25L314.32-2.25Q315.22-2.25 315.77-3.1L315.77-3.1 317.92-1.4Q317.17-0.35 316.24 0.08 315.32 0.5 314.12 0.5L314.12 0.5Q312.37 0.5 311.04-0.7 309.72-1.9 309.72-3.6L309.72-3.6Q308.52-1.6 306.57-0.55 304.62 0.5 302.17 0.5L302.17 0.5ZM302.22-2.2Q304.47-2.2 306.27-3.3 308.07-4.4 308.97-6.2L308.97-6.2Q309.67-7.65 309.67-9.4L309.67-9.4 309.67-22.5 306.37-22.6 303.47-22.7Q298.92-22.7 296.62-19.85 294.32-17 294.32-12.4L294.32-12.4Q294.32-8.15 296.34-5.18 298.37-2.2 302.22-2.2L302.22-2.2ZM344.67-3.1L346.81-1.4Q346.06-0.35 345.14 0.08 344.21 0.5 343.01 0.5L343.01 0.5Q341.26 0.5 339.94-0.7 338.62-1.9 338.62-3.6L338.62-3.6Q335.17 0.4 330.26 0.4L330.26 0.4Q326.51 0.4 324.42-1.43 322.31-3.25 322.12-6.95L322.12-6.95 322.12-17.65Q322.12-21.6 320.01-23.45L320.01-23.45 322.01-25.45Q323.21-24.7 324.17-23.1 325.12-21.5 325.12-19.65L325.12-19.65 325.12-8.25Q325.12-5.4 326.39-3.85 327.67-2.3 330.56-2.3L330.56-2.3Q333.31-2.3 335.29-3.5 337.26-4.7 338.56-7.3L338.56-7.3 338.62-25 341.62-25 341.56-4.3Q341.56-3.3 342.04-2.78 342.51-2.25 343.21-2.25L343.21-2.25Q344.12-2.25 344.67-3.1L344.67-3.1ZM361.11-25.5Q362.61-25.5 364.11-25.05L364.11-25.05 364.11-22.25Q362.66-22.6 361.21-22.6L361.21-22.6Q358.66-22.6 357.06-21.35L357.06-21.35Q355.46-20.1 354.21-17.8L354.21-17.8 354.21 0 351.21 0 351.21-17.5Q351.21-21.45 349.11-23.3L349.11-23.3 351.11-25.3Q352.01-24.75 352.81-23.65 353.61-22.55 353.96-21.2L353.96-21.2Q355.36-23.5 356.76-24.35L356.76-24.35Q358.51-25.5 361.11-25.5L361.11-25.5ZM377.31 0.5Q373.86 0.5 371.41-1.25 368.96-3 367.71-5.9 366.46-8.8 366.46-12.3L366.46-12.3Q366.46-16.15 367.96-19.13 369.46-22.1 372.26-23.75 375.06-25.4 378.81-25.4L378.81-25.4Q379.96-25.4 381.71-25.28 383.46-25.15 384.81-24.95L384.81-24.95 387.81-24.95 387.81-4.3Q387.81-3.3 388.29-2.78 388.76-2.25 389.46-2.25L389.46-2.25Q390.36-2.25 390.91-3.1L390.91-3.1 393.06-1.4Q392.31-0.35 391.38 0.08 390.46 0.5 389.26 0.5L389.26 0.5Q387.51 0.5 386.19-0.7 384.86-1.9 384.86-3.6L384.86-3.6Q383.66-1.6 381.71-0.55 379.76 0.5 377.31 0.5L377.31 0.5ZM377.36-2.2Q379.61-2.2 381.41-3.3 383.21-4.4 384.11-6.2L384.11-6.2Q384.81-7.65 384.81-9.4L384.81-9.4 384.81-22.5 381.51-22.6 378.61-22.7Q374.06-22.7 371.76-19.85 369.46-17 369.46-12.4L369.46-12.4Q369.46-8.15 371.49-5.18 373.51-2.2 377.36-2.2L377.36-2.2ZM419.96-3.4L422.16-1.75Q421.76-0.9 420.76-0.33 419.76 0.25 418.51 0.25L418.51 0.25Q416.51 0.25 415.21-1 413.91-2.25 413.91-4.25L413.91-4.25 413.91-16.8Q413.91-22.8 408.51-22.8L408.51-22.8Q405.96-22.8 404.16-21.53 402.36-20.25 400.46-17.7L400.46-17.7 400.46 0 397.46 0 397.46-17.55Q397.46-21.5 395.36-23.35L395.36-23.35 397.36-25.35Q398.26-24.8 399.08-23.65 399.91-22.5 400.26-21.15L400.26-21.15Q401.96-23.45 404.03-24.48 406.11-25.5 408.76-25.5L408.76-25.5Q412.41-25.5 414.56-23.63 416.71-21.75 416.91-18.1L416.91-18.1 416.91-4.2Q416.91-3.5 417.38-3.03 417.86-2.55 418.51-2.55L418.51-2.55Q419.51-2.55 419.96-3.4L419.96-3.4ZM432.5 0.5Q429.11 0.5 427.5-1.43 425.91-3.35 425.91-7.2L425.91-7.2 425.91-31.25 428.91-31.25 428.91-24.9 436.75-24.9 436.75-22.2 428.91-22.2 428.91-7.2Q428.91-2.2 432.5-2.2L432.5-2.2Q435.36-2.2 436.91-5.25L436.91-5.25 439.16-3.7Q438-1.6 436.41-0.55 434.81 0.5 432.5 0.5L432.5 0.5Z" opacity="1" transform="matrix(1,0,0,1,0,0)" fill="#ffbe79" class="wordmark-text-0" data-fill-palette-color="primary" id="text-0"></path></svg></g></svg></g></svg></g></svg></g><g transform="matrix(1,0,0,1,132.60815527436978,0)"><svg viewBox="0 0 130.3036894512604 120.691187712" height="120.691187712" width="130.3036894512604"><g><svg version="1.1" xmlns="http://www.w3.org/2000/svg" xmlns:xlink="http://www.w3.org/1999/xlink" x="0" y="0" viewBox="0 0 100 92.62300109863281" enable-background="new 0 0 100 92.623" xml:space="preserve" width="130.3036894512604" height="120.691187712" class="icon-icon-0" data-fill-palette-color="accent" id="icon-0"><polygon fill="#ffbe79" points="13.33,27.016 9.061,17.623 52.514,0 36.385,7.804 36.385,17.244 30.835,13.709 13.757,20.754 " data-fill-palette-color="accent"></polygon><polygon fill="#ffbe79" points="38.662,10.935 38.662,18.904 51.755,27.016 51.755,18.05 " data-fill-palette-color="accent"></polygon><polygon fill="#ffbe79" points="39.979,8.906 53.036,16.342 70.256,8.23 55.598,2.11 " data-fill-palette-color="accent"></polygon><polygon fill="#ffbe79" points="54.459,17.907 54.459,26.162 71.252,17.054 71.252,9.796 " data-fill-palette-color="accent"></polygon><polygon fill="#ffbe79" points="74.383,7.661 74.383,14.35 91.604,24.738 91.604,28.724 100,20.47 " data-fill-palette-color="accent"></polygon><polygon fill="#ffbe79" points="30.835,16.342 50.189,28.724 33.823,35.555 15.465,22.319 " data-fill-palette-color="accent"></polygon><polygon fill="#ffbe79" points="15.465,25.308 31.973,37.12 31.973,43.098 15.465,28.724 " data-fill-palette-color="accent"></polygon><polygon fill="#ffbe79" points="34.108,37.689 51.755,30.146 51.755,36.693 34.108,44.236 " data-fill-palette-color="accent"></polygon><polygon fill="#ffbe79" points="55.117,30.146 55.117,37.191 68.548,43.098 68.548,35.555 " data-fill-palette-color="accent"></polygon><polygon fill="#ffbe79" points="55.117,27.918 69.378,33.942 87.357,25.451 74.549,17.979 " data-fill-palette-color="accent"></polygon><polygon fill="#ffbe79" points="70.256,35.555 88.33,26.162 88.33,35.555 70.256,43.098 " data-fill-palette-color="accent"></polygon><polygon fill="#ffbe79" points="53.463,38.259 65.702,44.236 44.07,53.06 35.247,45.659 " data-fill-palette-color="accent"></polygon><polygon fill="#ffbe79" points="11.907,29.436 39.979,53.06 24.004,59.203 0,39.351 " data-fill-palette-color="accent"></polygon><polygon fill="#ffbe79" points="47.628,53.771 91.271,37.191 94.592,52.585 56.594,68.999 " data-fill-palette-color="accent"></polygon><polygon fill="#ffbe79" points="47.628,62.024 54.221,72.623 89.469,58.04 89.469,74.406 47.628,92.623 " data-fill-palette-color="accent"></polygon><polygon fill="#ffbe79" points="43.928,55.337 43.928,92.054 15.465,71.987 15.465,56.001 23.326,62.297 " data-fill-palette-color="accent"></polygon></svg></g></svg></g><g></g></svg></g><defs></defs></svg><rect width="395.52" height="174.66495057100798" fill="none" stroke="none" visibility="hidden"></rect></g></svg></g></svg>