<?xml version="1.0" standalone="no"?>
<!DOCTYPE svg PUBLIC "-//W3C//DTD SVG 20010904//EN"
 "http://www.w3.org/TR/2001/REC-SVG-20010904/DTD/svg10.dtd">
<svg version="1.0" xmlns="http://www.w3.org/2000/svg"
 width="1019.000000pt" height="1001.000000pt" viewBox="0 0 1019.000000 1001.000000"
 preserveAspectRatio="xMidYMid meet">

<g transform="translate(0.000000,1001.000000) scale(0.100000,-0.100000)"
fill="#000000" stroke="none">
<path d="M3183 8471 c-1107 -450 -2015 -820 -2018 -823 -3 -2 85 -202 194
-444 110 -241 202 -432 205 -424 2 8 12 137 21 285 11 168 21 274 29 282 11
12 1609 673 1626 673 5 0 126 -74 267 -165 l258 -164 5 450 5 450 660 319
c769 372 783 379 770 378 -5 0 -916 -368 -2022 -817z"/>
<path d="M4900 8824 c-382 -167 -714 -312 -738 -322 l-42 -19 622 -354 c342
-195 627 -353 633 -351 43 13 1632 768 1627 773 -13 12 -1380 579 -1393 578
-8 -1 -327 -138 -709 -305z"/>
<path d="M7422 8278 l3 -322 815 -492 815 -491 5 -193 5 -192 396 389 c218
213 397 391 398 395 1 5 -548 283 -1219 618 l-1220 610 2 -322z"/>
<path d="M6303 8007 l-792 -382 -1 -392 c0 -216 2 -393 5 -393 2 0 362 194
800 431 l795 432 0 343 c0 189 -3 344 -7 344 -5 0 -364 -173 -800 -383z"/>
<path d="M3990 7907 l1 -382 615 -380 c338 -209 619 -382 625 -383 6 -2 8 156
7 423 l-3 428 -560 304 c-308 167 -588 319 -622 338 l-63 35 0 -383z"/>
<path d="M2515 7489 c-396 -154 -724 -284 -728 -288 -10 -9 1731 -1267 1748
-1263 13 2 1548 642 1553 647 3 3 -1843 1185 -1849 1185 -2 -1 -328 -127 -724
-281z"/>
<path d="M7060 7426 c-195 -101 -610 -314 -923 -473 l-567 -290 681 -288 c626
-265 683 -287 707 -276 188 85 1682 796 1682 801 0 9 -1202 710 -1216 709 -5
0 -169 -83 -364 -183z"/>
<path d="M1770 6748 l0 -163 548 -476 c301 -263 656 -572 790 -688 l242 -212
-2 288 -3 288 -730 522 c-401 288 -756 541 -787 564 l-58 40 0 -163z"/>
<path d="M7885 6382 l-860 -448 -3 -362 -2 -361 102 43 c57 23 446 186 866
361 l762 318 0 448 c0 247 -1 449 -2 449 -2 -1 -390 -202 -863 -448z"/>
<path d="M856 6041 c-308 -257 -558 -471 -556 -477 4 -8 2253 -1872 2280
-1889 6 -4 353 125 771 286 l760 292 -28 28 c-66 64 -2647 2229 -2657 2228 -6
0 -263 -211 -570 -468z"/>
<path d="M5570 6111 l0 -337 533 -234 c292 -128 580 -255 640 -281 l107 -48
-2 361 -3 362 -205 82 c-113 46 -400 161 -637 257 l-433 174 0 -336z"/>
<path d="M4388 6083 l-828 -355 0 -309 c0 -170 4 -309 9 -309 4 0 381 160 837
355 l829 354 3 311 c2 245 0 310 -10 309 -7 -1 -385 -161 -840 -356z"/>
<path d="M6940 4980 c-1141 -434 -2078 -791 -2082 -792 -3 -2 186 -329 421
-728 281 -477 433 -724 442 -722 16 4 3574 1539 3605 1556 20 11 18 20 -138
741 -86 402 -158 731 -158 733 0 6 -145 -48 -2090 -788z"/>
<path d="M4533 5316 c-475 -193 -863 -353 -862 -356 2 -15 830 -695 846 -694
20 0 2053 826 2053 834 0 6 -1157 570 -1167 569 -5 -1 -396 -159 -870 -353z"/>
<path d="M3496 3699 c-533 -181 -974 -325 -980 -322 -11 7 -696 553 -728 581
-17 14 -18 -22 -18 -750 l0 -766 1348 -949 c741 -522 1353 -953 1360 -957 9
-6 12 346 12 1743 0 1395 -3 1751 -12 1750 -7 -1 -449 -149 -982 -330z"/>
<path d="M7170 3078 c-1505 -623 -1686 -696 -1697 -681 -7 9 -149 235 -315
503 l-303 487 -3 -1455 c-1 -800 0 -1457 2 -1459 3 -3 3993 1731 4002 1740 2
2 3 354 2 783 l-3 779 -1685 -697z"/>
</g>
</svg>
